Jump_normalized_Motion_pl01
version=1
nRows=14
nColumns=43
inDegrees=yes
endheader
time		pelvis_tilt		pelvis_list		pelvis_rotation		pelvis_tx		pelvis_ty		pelvis_tz		hip_flexion_r		hip_adduction_r		hip_rotation_r		knee_angle_r		ankle_angle_r		subtalar_angle_r		mtp_angle_r		hip_flexion_l		hip_adduction_l		hip_rotation_l		knee_angle_l		ankle_angle_l		subtalar_angle_l		mtp_angle_l		lumbar_extension		lumbar_bending		lumbar_rotation		neck_flexion		neck_lateral_bending		neck_rotation		arm_flex_r		arm_add_r		arm_rot_r		elbow_flex_r		pro_sup_r		wrist_flex_r		wrist_dev_r		hand_finger_flex_r		arm_flex_l		arm_add_l		arm_rot_l		elbow_flex_l		pro_sup_l		wrist_flex_l		wrist_dev_l		hand_finger_flex_l		
0.040000		-0.083781		-5.581553		93.797159		0.009778		1.816966		1.874717		65.804665		-5.543653		6.735618		-128.581248		27.811935		3.749455		11.216668		65.547497		0.165814		8.235557		-127.363363		31.202914		-5.916127		8.844813		-52.844396		0.214962		-0.956942		26.608707		2.136701		-3.022013		83.818178		-17.114803		22.532793		54.966039		73.232062		-34.975533		9.902586		29.993389		81.221548		-11.274591		14.472097		65.161747		116.502693		-14.696796		18.380414		66.672244		
0.043308		-0.086138		-5.778010		93.784152		0.009463		1.816629		1.873397		65.879081		-5.550935		6.805845		-128.595303		27.845487		3.754776		11.218448		65.629473		0.200752		8.178231		-127.413318		31.227491		-6.014757		8.847245		-52.737778		0.236573		-0.991376		26.768642		2.128061		-2.977673		85.255350		-16.876850		23.041801		55.258575		72.646043		-35.148159		9.613706		29.985613		82.559951		-10.984713		14.863975		65.152054		116.247313		-14.730722		18.313679		66.559653		
0.046616		-0.109449		-5.932244		93.767606		0.009177		1.816371		1.872028		65.904187		-5.566493		6.891782		-128.623340		27.853405		3.784899		11.220908		65.653169		0.244251		8.105647		-127.467357		31.211250		-6.159522		8.843894		-52.667303		0.234131		-1.043167		26.849343		2.136850		-2.935876		86.763247		-16.775732		23.930509		55.552532		71.576983		-35.505300		9.162760		29.996795		83.973999		-10.809918		15.482036		65.115766		115.796357		-14.780108		18.241044		66.392076		
0.049924		-0.082719		-6.191270		93.778912		0.009010		1.815964		1.870653		66.037033		-5.541484		6.921196		-128.639443		27.857124		3.809523		11.230263		65.808472		0.254906		8.112327		-127.507742		31.230708		-6.164304		8.846373		-52.476975		0.268101		-1.080374		26.938054		2.149904		-2.887326		88.084964		-16.435760		24.135142		55.830350		71.530946		-35.450529		9.036041		30.025936		85.330324		-10.538424		15.903681		65.087617		115.907581		-14.705682		18.193130		66.355031		
0.053232		-0.094653		-6.342747		93.762173		0.008820		1.815655		1.868972		66.025570		-5.571545		6.946908		-128.708983		27.857730		3.817471		11.273967		65.816065		0.262787		8.070791		-127.621775		31.239015		-6.192108		8.851717		-52.366656		0.252297		-1.121497		26.849582		2.216922		-2.878758		89.379327		-16.233946		24.561655		56.198763		71.015500		-35.517448		8.629092		30.069440		86.538979		-10.300091		16.272479		65.227128		115.705738		-14.730700		18.038466		66.302911		
0.056540		-0.140796		-6.455386		93.756751		0.008694		1.815615		1.867443		65.973792		-5.598447		7.017709		-128.724680		27.843236		3.834447		11.370391		65.767978		0.289980		8.007753		-127.643927		31.223060		-6.246643		8.858657		-52.336226		0.211185		-1.191678		26.935174		2.314514		-2.862943		90.904410		-16.205975		25.594125		56.404185		69.777928		-35.745194		7.855596		30.150107		88.010360		-10.167689		17.043537		65.121865		115.210347		-14.780154		17.790055		66.204615		
0.059848		-0.115744		-6.753907		93.783274		0.008692		1.815341		1.866005		66.120857		-5.573325		7.025515		-128.701916		27.844671		3.853408		11.383038		65.942358		0.288387		8.042551		-127.625576		31.208795		-6.246795		8.862916		-52.106833		0.232804		-1.231910		27.120764		2.295319		-2.803921		92.232141		-15.812104		25.767295		56.562554		69.745573		-35.700756		7.739144		30.130564		89.423420		-9.851322		17.467382		64.937459		115.327660		-14.728416		17.751584		66.163466		
0.063157		-0.112996		-6.960177		93.818066		0.008663		1.815017		1.864381		66.182094		-5.596060		6.987219		-128.784839		27.786882		3.831876		11.411482		66.042538		0.311020		8.059615		-127.717917		31.088167		-6.236026		8.886034		-51.936570		0.224388		-1.247963		27.096106		2.461631		-2.768879		93.693695		-15.769582		26.584590		56.746873		69.467774		-35.556398		7.449495		30.077737		90.888727		-9.725756		18.363502		64.860896		115.285454		-14.675941		17.598622		66.141364		
0.066465		-0.099956		-7.199303		93.804985		0.008505		1.814920		1.862573		66.212519		-5.608902		6.973043		-128.771547		27.810496		3.806374		11.426633		66.104126		0.311753		8.060238		-127.735776		31.090370		-6.249204		8.906336		-51.749263		0.212679		-1.298408		27.081598		2.483897		-2.744504		94.924085		-15.446862		26.734802		57.053624		69.348410		-35.515008		7.238385		30.024948		92.065947		-9.381605		18.502127		64.927024		115.222399		-14.756698		17.493481		66.086958		
0.069773		-0.115674		-7.416981		93.814273		0.008469		1.814980		1.860973		66.231926		-5.604958		6.982887		-128.735913		27.768549		3.720364		11.436734		66.156345		0.335292		8.059831		-127.714000		30.950246		-6.282340		8.956476		-51.606002		0.174214		-1.335592		27.134168		2.628400		-2.707058		96.482238		-15.440188		27.700371		57.186482		69.053472		-35.284632		6.960824		29.897799		93.581336		-9.202447		19.276301		64.723235		115.046189		-14.881025		17.315201		65.939610		
0.073081		-0.118961		-7.676540		93.808168		0.008434		1.815064		1.859238		66.278801		-5.567172		7.006967		-128.693223		27.787490		3.665358		11.446928		66.216790		0.338673		8.041595		-127.668602		30.925427		-6.324138		9.002760		-51.421854		0.148681		-1.378130		27.249098		2.671463		-2.685047		97.834717		-15.166094		28.026966		57.370257		68.835131		-35.195593		6.750542		29.798487		94.900030		-8.867752		19.513434		64.620433		114.908401		-15.076547		17.201065		65.772230		
0.076389		-0.146171		-7.904699		93.771651		0.008400		1.815156		1.857438		66.295834		-5.526489		7.050062		-128.661272		27.762126		3.586055		11.454414		66.245173		0.343821		8.002207		-127.651054		30.845194		-6.386746		9.079999		-51.261900		0.080128		-1.398943		27.300192		2.761332		-2.676305		99.274956		-15.045953		28.619721		57.534779		68.465346		-35.030992		6.506382		29.675508		96.273029		-8.606880		19.962201		64.491732		114.659525		-15.376166		17.054902		65.498800		
0.079697		-0.145343		-8.204854		93.768309		0.008428		1.815263		1.855562		66.362731		-5.465299		7.089856		-128.620473		27.784738		3.558457		11.462346		66.326110		0.346341		7.982649		-127.577546		30.842776		-6.404365		9.107950		-51.029046		0.057169		-1.446466		27.401284		2.803332		-2.662210		100.551753		-14.695365		28.708542		57.705707		68.390903		-34.938624		6.387515		29.653857		97.522081		-8.250817		20.042032		64.410994		114.610417		-15.506241		16.986262		65.356303		
0.083005		-0.211649		-8.415086		93.688134		0.008414		1.815366		1.853667		66.375081		-5.425002		7.189365		-128.595061		27.685779		3.486547		11.478972		66.326653		0.334404		7.888356		-127.586169		30.726790		-6.464063		9.203550		-50.881442		-0.082756		-1.442699		27.444322		2.925505		-2.689124		102.054668		-14.689284		29.409896		57.789801		68.055385		-34.531712		6.157073		29.714618		98.944937		-8.031225		20.658972		64.248406		114.198719		-15.795904		16.797005		64.951023		
